<svg xmlns="http://www.w3.org/2000/svg" version="1.1" xmlns:xlink="http://www.w3.org/1999/xlink" xmlns:svgjs="http://svgjs.dev/svgjs" width="1440" height="250" preserveAspectRatio="none" viewBox="0 0 1440 250"><g mask="url(&quot;#SvgjsMask1398&quot;)" fill="none"><rect width="1440" height="250" x="0" y="0" fill="url(&quot;#SvgjsLinearGradient1399&quot;)"></rect><path d="M27 250L277 0L316 0L66 250z" fill="url(&quot;#SvgjsLinearGradient1400&quot;)"></path><path d="M254.60000000000002 250L504.6 0L543.6 0L293.6 250z" fill="url(&quot;#SvgjsLinearGradient1400&quot;)"></path><path d="M482.20000000000005 250L732.2 0L1020.2 0L770.2 250z" fill="url(&quot;#SvgjsLinearGradient1400&quot;)"></path><path d="M742.8000000000001 250L992.8000000000001 0L1139.8000000000002 0L889.8000000000001 250z" fill="url(&quot;#SvgjsLinearGradient1400&quot;)"></path><path d="M1434 250L1184 0L1068.5 0L1318.5 250z" fill="url(&quot;#SvgjsLinearGradient1401&quot;)"></path><path d="M1167.4 250L917.4000000000001 0L578.4000000000001 0L828.4000000000001 250z" fill="url(&quot;#SvgjsLinearGradient1401&quot;)"></path><path d="M932.8 250L682.8 0L639.3 0L889.3 250z" fill="url(&quot;#SvgjsLinearGradient1401&quot;)"></path><path d="M725.1999999999999 250L475.19999999999993 0L289.19999999999993 0L539.1999999999999 250z" fill="url(&quot;#SvgjsLinearGradient1401&quot;)"></path><path d="M1196.4933665274032 250L1440 6.493366527403083L1440 250z" fill="url(&quot;#SvgjsLinearGradient1400&quot;)"></path><path d="M0 250L243.50663347259692 250L 0 6.493366527403083z" fill="url(&quot;#SvgjsLinearGradient1401&quot;)"></path></g><defs><mask id="SvgjsMask1398"><rect width="1440" height="250" fill="#ffffff"></rect></mask><linearGradient x1="20.66%" y1="-119%" x2="79.34%" y2="219%" gradientUnits="userSpaceOnUse" id="SvgjsLinearGradient1399"><stop stop-color="#0e2a47" offset="0"></stop><stop stop-color="rgba(1, 22, 50, 1)" offset="1"></stop></linearGradient><linearGradient x1="0%" y1="100%" x2="100%" y2="0%" id="SvgjsLinearGradient1400"><stop stop-color="rgba(15, 70, 185, 0.2)" offset="0"></stop><stop stop-opacity="0" stop-color="rgba(15, 70, 185, 0.2)" offset="0.66"></stop></linearGradient><linearGradient x1="100%" y1="100%" x2="0%" y2="0%" id="SvgjsLinearGradient1401"><stop stop-color="rgba(15, 70, 185, 0.2)" offset="0"></stop><stop stop-opacity="0" stop-color="rgba(15, 70, 185, 0.2)" offset="0.66"></stop></linearGradient></defs></svg>